ply
format ascii 1.0
element vertex 15
property float x
property float y
property float z
end_header
-1.82309 0.1981 0.557043
-2.29723 1.33936e-008 0.472924
-2.74482 -0.122407 -0.332248
-2.33472 -0.0303026 -1.44766
-0.890763 -5.47123e-009 -1.20118
-1.15432 0.262871 -2.32793
-4.31049 -0.49681 0.41791
-4.24907 -0.504288 -0.608359
-4.13739 -0.0271941 -1.85288
-5.74758 -0.437639 -0.315951
-7.13395 -0.0123729 -0.182473
-6.84939 1.05363 -0.148139
-6.17737 1.36471 0.838212
-6.01816 1.09549 0.967479
-4.77939 -0.886426 -3.26882
