ply
format ascii 1.0
element vertex 20
property float x
property float y
property float z
property uchar diffuse_red
property uchar diffuse_green
property uchar diffuse_blue
end_header
-1.24622 0.0427162 -0.2372 0 255 0
-1.82309 0.1981 0.557043 255 0 255
-2.29723 1.33936e-008 0.472924 255 0 255
-2.74482 -0.122407 -0.332248 255 0 255
-2.33472 -0.0303026 -1.44766 255 0 255
-0.890763 -5.47123e-009 -1.20118 255 0 255
-1.15432 0.262871 -2.32793 255 0 255
-4.31049 -0.49681 0.41791 255 0 255
-4.24907 -0.504288 -0.608359 255 0 255
-4.13739 -0.0271941 -1.85288 255 0 255
-4.27932 0.0335873 -2.38311 0 255 0
-4.27578 -0.305324 1.22023 0 255 0
-5.74758 -0.437639 -0.315951 255 0 255
-6.43918 3.47152e-007 -1.26743 0 255 0
-7.13395 -0.0123729 -0.182473 255 0 255
-6.84939 1.05363 -0.148139 255 0 255
-6.17737 1.36471 0.838212 255 0 255
-6.01816 1.09549 0.967479 255 0 255
-4.77939 -0.886426 -3.26882 255 0 255
-5.1434 1.03534 -2.33199 0 255 0
